<mxfile host="65bd71144e" modified="2020-11-18T19:30:42.101Z" agent="5.0 (X11; Linux x86_64) AppleWebKit/537.36 (KHTML, like Gecko) Code/1.48.2 Chrome/78.0.3904.130 Electron/7.3.2 Safari/537.36" version="13.6.5" etag="_7DWGytHATaVUb7PyDNW">
    <diagram id="DyBN2T6iLyL5CJa0CfkB" name="Page-1">
        <mxGraphModel dx="1028" dy="392" grid="1" gridSize="10" guides="1" tooltips="1" connect="1" arrows="1" fold="1" page="1" pageScale="1" pageWidth="827" pageHeight="1169" math="0" shadow="0">
            <root>
                <mxCell id="0"/>
                <mxCell id="1" parent="0"/>
            </root>
        </mxGraphModel>
    </diagram>
</mxfile>
